HIERARCHY
ROOT Hips
{
	OFFSET 0.000000 0.000000 0.000000 
	CHANNELS 6 Xposition Yposition Zposition Zrotation Yrotation Xrotation
	JOINT LeftUpLeg
	{
		OFFSET 1.363060 -1.794630 0.839290 
		CHANNELS 3 Zrotation Yrotation Xrotation
		JOINT LeftLeg
		{
			OFFSET 2.448110 -6.726130 0.000000 
			CHANNELS 3 Zrotation Yrotation Xrotation
			JOINT LeftFoot
			{
				OFFSET 2.562200 -7.039590 0.000000 
				CHANNELS 3 Zrotation Yrotation Xrotation
				JOINT LeftToeBase
				{
					OFFSET 0.157640 -0.433110 2.322550 
					CHANNELS 3 Zrotation Yrotation Xrotation
					End Site
					{
						OFFSET 0.000000 0.000000 0.000000 
					}
				}
			}
		}
	}
	JOINT RightUpLeg
	{
		OFFSET -1.305520 -1.794630 0.839290 
		CHANNELS 3 Zrotation Yrotation Xrotation
		JOINT RightLeg
		{
			OFFSET -2.542530 -6.985550 0.000000 
			CHANNELS 3 Zrotation Yrotation Xrotation
			JOINT RightFoot
			{
				OFFSET -2.568260 -7.056230 0.000000 
				CHANNELS 3 Zrotation Yrotation Xrotation
				JOINT RightToeBase
				{
					OFFSET -0.164730 -0.452590 2.363150 
					CHANNELS 3 Zrotation Yrotation Xrotation
					End Site
					{
						OFFSET 0.000000 0.000000 0.000000 
					}
				}
			}
		}
	}
	JOINT Spine
	{
		OFFSET 0.028270 2.035590 -0.193380 
		CHANNELS 3 Zrotation Yrotation Xrotation
		JOINT Spine1
		{
			OFFSET 0.056720 2.048850 -0.042750 
			CHANNELS 3 Zrotation Yrotation Xrotation
			JOINT Neck1
			{
				OFFSET -0.054170 1.746240 0.172020 
				CHANNELS 3 Zrotation Yrotation Xrotation
				JOINT Head
				{
					OFFSET 0.104070 1.761360 -0.123970 
					CHANNELS 3 Zrotation Yrotation Xrotation
					End Site
					{
						OFFSET 0.000000 0.000000 0.000000 
					}
				}
			}
			JOINT LeftArm
			{
				OFFSET 3.362410 1.200890 -0.311210 
				CHANNELS 3 Zrotation Yrotation Xrotation
				JOINT LeftForeArm
				{
					OFFSET 4.983000 -0.000000 -0.000000 
					CHANNELS 3 Zrotation Yrotation Xrotation
					JOINT LeftHand
					{
						OFFSET 3.483560 -0.000000 -0.000000 
						CHANNELS 3 Zrotation Yrotation Xrotation
						JOINT LeftHandIndex1
						{
							OFFSET 0.715260 -0.000000 -0.000000 
							CHANNELS 3 Zrotation Yrotation Xrotation
							End Site
							{
								OFFSET 0.000000 0.000000 0.000000 
							}
						}
					}
				}
			}
			JOINT RightArm
			{
				OFFSET -3.136600 1.374050 -0.404650 
				CHANNELS 3 Zrotation Yrotation Xrotation
				JOINT RightForeArm
				{
					OFFSET -5.241900 -0.000000 -0.000000 
					CHANNELS 3 Zrotation Yrotation Xrotation
					JOINT RightHand
					{
						OFFSET -3.444170 -0.000000 -0.000000 
						CHANNELS 3 Zrotation Yrotation Xrotation
						JOINT RightHandIndex1
						{
							OFFSET -0.622530 -0.000000 -0.000000 
							CHANNELS 3 Zrotation Yrotation Xrotation
							End Site
							{
								OFFSET 0.000000 0.000000 0.000000 
							}
						}
					}
				}
			}
		}
	}
}
MOTION
Frames: 15
Frame Time: 0.041667
-0.661415 18.311467 5.706052 0.842043 -2.447938 2.497584 -15.479293 -10.666388 -2.681231 0.374119 6.010243 19.973546 -1.183887 9.428959 -16.121917 8.251100 -16.300900 -53.462100 3.159061 1.807809 -1.961101 0.044580 0.523033 1.357127 0.249200 -1.069582 5.691259 0.000000 0.000000 0.000000 -3.713459 1.584820 12.116066 0.333296 1.700448 -13.805047 6.669163 -5.620542 26.203185 1.076900 -1.837600 8.993900 -90.396292 10.020202 25.857165 21.023115 -29.121543 -4.561444 0.326816 -0.237554 13.242282 -7.125000 0.000000 0.000000 93.391710 -16.233084 21.997201 -31.537064 39.085982 -9.250082 0.830729 -3.379388 19.762412 7.125000 0.000000 0.000000 
-0.658964 18.310585 5.711346 0.752822 -2.416569 2.436356 -15.422510 -10.696380 -2.610041 0.376428 6.008317 19.983281 -1.183773 9.431785 -16.140794 8.241400 -16.294000 -53.427800 3.160605 1.807838 -1.957553 0.043988 0.524341 1.357169 0.249640 -1.068819 5.692787 0.000000 0.000000 0.000000 -3.467849 1.585609 12.334065 0.231848 1.690621 -13.781066 6.607102 -5.624929 26.501502 1.061800 -1.836900 9.064700 -90.350786 9.915716 26.426866 21.159104 -29.276466 -4.612993 0.322488 -0.236610 13.027727 -7.125000 0.000000 0.000000 93.347461 -16.171812 21.860924 -31.578874 39.127520 -9.287071 0.845906 -3.386321 19.836954 7.125000 0.000000 0.000000 
-0.656317 18.309605 5.715856 0.692239 -2.355688 2.355988 -15.391239 -10.686474 -2.552117 0.379082 5.994571 19.969332 -1.178820 9.387176 -16.077634 8.241000 -16.293700 -53.426200 3.160341 1.808310 -1.949076 0.043255 0.527860 1.357577 0.250688 -1.066219 5.695687 0.000000 0.000000 0.000000 -3.166864 1.552097 12.741432 0.157042 1.672742 -13.784421 6.413255 -5.580082 26.549622 1.023300 -1.836500 9.077700 -90.367298 9.803177 26.930038 21.363109 -29.517619 -4.699304 0.326585 -0.231563 12.747625 -7.125000 0.000000 0.000000 93.230647 -16.114179 21.903448 -31.721891 39.245202 -9.352388 0.857315 -3.377752 19.756271 7.125000 0.000000 0.000000 
-0.654258 18.308428 5.720072 0.709105 -2.296098 2.202417 -15.403181 -10.586153 -2.469883 0.384913 5.979137 19.955428 -1.162622 9.287270 -15.979559 8.241500 -16.294100 -53.428100 3.150681 1.810824 -1.932602 0.043267 0.536120 1.359554 0.253181 -1.058737 5.699792 0.000000 0.000000 0.000000 -3.193633 1.519361 13.325980 0.172389 1.660182 -13.836755 6.388614 -5.525807 26.260136 1.025900 -1.823600 9.007400 -90.344370 9.747672 27.508220 21.676187 -29.889429 -4.836698 0.340506 -0.216409 12.198771 -7.125000 0.000000 0.000000 93.128697 -16.021349 22.033590 -31.890973 39.388938 -9.414810 0.865317 -3.360154 19.595542 7.125000 0.000000 0.000000 
-0.652395 18.306859 5.723700 0.821168 -2.280639 2.027316 -15.501669 -10.584930 -2.317983 0.384480 5.963601 19.935815 -1.158189 9.276942 -16.005127 8.230900 -16.286500 -53.390300 3.134342 1.814556 -1.913427 0.044104 0.546464 1.362454 0.256337 -1.048748 5.703702 0.000000 0.000000 0.000000 -3.567596 1.523900 13.904958 0.283462 1.669556 -13.905884 6.579546 -5.500932 25.734862 1.076300 -1.809200 8.878600 -90.249764 9.790634 28.241078 22.129135 -30.413399 -5.033511 0.355479 -0.190557 11.405330 -7.125000 0.000000 0.000000 93.079541 -15.941285 22.140311 -32.092526 39.562790 -9.484738 0.874600 -3.337505 19.374151 7.125000 0.000000 0.000000 
-0.650042 18.306173 5.725171 0.946656 -2.283391 1.884638 -15.627027 -10.646254 -2.167259 0.379352 5.947050 19.907939 -1.174528 9.355501 -16.051693 8.235100 -16.289500 -53.405200 3.119320 1.817966 -1.896620 0.044949 0.555661 1.365066 0.259125 -1.039802 5.707033 0.000000 0.000000 0.000000 -3.941551 1.541627 14.401001 0.407851 1.686357 -13.976915 6.680261 -5.469683 25.181285 1.102500 -1.801600 8.745200 -90.183111 9.862009 28.919792 22.611018 -30.962611 -5.243484 0.366410 -0.158903 10.626747 -7.125000 0.000000 0.000000 93.032450 -15.889394 22.253298 -32.354768 39.786864 -9.583803 0.881840 -3.310570 19.000744 7.125000 0.000000 0.000000 
-0.647492 18.306075 5.726249 1.026989 -2.289054 1.764715 -15.696335 -10.591681 -2.085861 0.377322 5.929472 19.876926 -1.185450 9.383128 -16.013469 8.245900 -16.297100 -53.443500 3.105714 1.821340 -1.880142 0.045558 0.564696 1.367575 0.261865 -1.031138 5.710579 0.000000 0.000000 0.000000 -4.222085 1.569042 14.923643 0.497301 1.703313 -14.053441 6.577139 -5.414916 24.751526 1.076300 -1.796600 8.653300 -90.181581 9.840104 29.404603 22.988195 -31.407337 -5.426964 0.394751 -0.124297 10.050388 -7.125000 0.000000 0.000000 93.001247 -15.822017 22.343782 -32.631695 40.036706 -9.704723 0.893061 -3.289274 18.601025 7.125000 0.000000 0.000000 
-0.645532 18.305193 5.728112 1.105901 -2.285113 1.687595 -15.747449 -10.498797 -2.066792 0.379153 5.918071 19.858009 -1.176249 9.325307 -15.950734 8.254300 -16.303100 -53.473500 3.094489 1.824079 -1.867525 0.046157 0.571771 1.369568 0.264003 -1.024279 5.713186 0.000000 0.000000 0.000000 -4.496164 1.589638 15.318414 0.594244 1.717548 -14.107502 6.459635 -5.386062 24.646311 1.043200 -1.793700 8.649500 -90.169286 9.824659 29.867591 23.327979 -31.807837 -5.607451 0.434429 -0.087192 9.592446 -7.125000 0.000000 0.000000 92.971166 -15.769700 22.428916 -32.873968 40.253419 -9.814535 0.900807 -3.271891 18.304898 7.125000 0.000000 0.000000 
-0.643767 18.304898 5.730171 1.227458 -2.268356 1.667452 -15.835441 -10.485781 -2.059856 0.379063 5.913817 19.845744 -1.170278 9.294226 -15.921647 8.250600 -16.300500 -53.460400 3.084750 1.826120 -1.860816 0.047104 0.576082 1.371040 0.265312 -1.019690 5.713930 0.000000 0.000000 0.000000 -4.913260 1.608148 15.456556 0.741502 1.731902 -14.127940 6.395462 -5.394149 24.956700 1.019200 -1.789400 8.750900 -90.101349 9.903298 30.436890 23.690275 -32.202423 -5.776434 0.445939 -0.058484 9.098063 -7.125000 0.000000 0.000000 92.948962 -15.762890 22.528900 -33.085104 40.432184 -9.910823 0.897348 -3.255244 18.034212 7.125000 0.000000 0.000000 
-0.642002 18.305585 5.731838 1.331657 -2.269787 1.683869 -15.902492 -10.485391 -2.070526 0.376380 5.912708 19.833342 -1.175959 9.316467 -15.915308 8.254200 -16.303000 -53.473000 3.075275 1.828114 -1.856507 0.048208 0.579462 1.372461 0.266365 -1.015767 5.713908 0.000000 0.000000 0.000000 -5.406945 1.635795 15.481881 0.891075 1.744745 -14.124153 6.282468 -5.393110 25.490909 0.978500 -1.776000 8.906500 -90.012669 9.995602 30.964599 24.023614 -32.548931 -5.919574 0.440566 -0.039578 8.581678 -7.125000 0.000000 0.000000 92.958684 -15.746980 22.631361 -33.272706 40.599292 -10.007354 0.899240 -3.245487 17.745020 7.125000 0.000000 0.000000 
-0.641120 18.306075 5.732622 1.351568 -2.264714 1.716622 -15.896840 -10.449946 -2.128220 0.376856 5.914198 19.832931 -1.182062 9.327595 -15.876292 8.285700 -16.325400 -53.585300 3.070913 1.829102 -1.853731 0.048639 0.581383 1.373149 0.266936 -1.013696 5.714196 0.000000 0.000000 0.000000 -5.608888 1.628592 15.531147 0.958025 1.739080 -14.096055 6.201425 -5.378843 25.911252 0.951100 -1.758600 9.022900 -89.971228 10.006809 31.364535 24.242694 -32.778189 -6.020408 0.445148 -0.018834 8.198113 -7.125000 0.000000 0.000000 92.936985 -15.688816 22.748071 -33.397857 40.711756 -10.073459 0.909323 -3.240893 17.549697 7.125000 0.000000 0.000000 
-0.640433 18.306369 5.733210 1.317109 -2.236070 1.730485 -15.871767 -10.473911 -2.155381 0.377707 5.914987 19.842959 -1.190192 9.361217 -15.887777 8.323100 -16.351800 -53.718300 3.072437 1.828813 -1.851818 0.048247 0.581861 1.372927 0.267017 -1.013640 5.715105 0.000000 0.000000 0.000000 -5.444891 1.575578 15.656781 0.933366 1.716221 -14.060089 6.347449 -5.408897 26.064431 0.992200 -1.755800 9.062200 -89.991956 9.925384 31.725028 24.339319 -32.883323 -6.066858 0.450211 -0.003347 7.949516 -7.125000 0.000000 0.000000 92.838145 -15.605087 22.906486 -33.443409 40.739114 -10.088012 0.910595 -3.234688 17.498244 7.125000 0.000000 0.000000 
-0.639355 18.306957 5.733603 1.287339 -2.195880 1.669181 -15.871521 -10.527067 -2.125687 0.379816 5.907766 19.852534 -1.188793 9.367990 -15.941306 8.348600 -16.369800 -53.809000 3.071292 1.829692 -1.840940 0.047409 0.586669 1.373453 0.268335 -1.010024 5.718830 0.000000 0.000000 0.000000 -5.113946 1.502195 16.189361 0.885895 1.690919 -14.092554 6.524008 -5.452900 26.077280 1.048000 -1.764200 9.091600 -90.070268 9.694565 32.036829 24.371552 -32.930158 -6.074211 0.439007 -0.016022 7.717106 -7.125000 0.000000 0.000000 92.680406 -15.405610 23.140054 -33.463135 40.764984 -10.095365 0.914928 -3.231266 17.411616 7.125000 0.000000 0.000000 
-0.638374 18.307644 5.733014 1.257227 -2.172520 1.576060 -15.863901 -10.538848 -2.105993 0.385754 5.897482 19.862651 -1.181695 9.326904 -15.923794 8.332300 -16.358300 -53.750900 3.065509 1.832232 -1.823137 0.046565 0.595492 1.375031 0.270825 -1.002700 5.724425 0.000000 0.000000 0.000000 -4.804283 1.450947 16.997851 0.847145 1.677637 -14.179014 6.505849 -5.438704 26.044851 1.054600 -1.762100 9.132100 -90.187296 9.323934 32.210780 24.328082 -32.908183 -6.043779 0.417721 -0.051452 7.601599 -7.125000 0.000000 0.000000 92.561440 -15.061157 23.331434 -33.430620 40.787214 -10.092146 0.921311 -3.235779 17.303256 7.125000 0.000000 0.000000 
-0.637982 18.308036 5.732034 1.240386 -2.200215 1.551860 -15.845995 -10.565536 -2.108520 0.387658 5.895994 19.870397 -1.185073 9.337950 -15.926158 8.299300 -16.335000 -53.633500 3.060230 1.833967 -1.814251 0.046514 0.600309 1.376170 0.272216 -0.998354 5.726830 0.000000 0.000000 0.000000 -4.802951 1.465687 17.353366 0.852439 1.685919 -14.201641 6.464468 -5.401924 25.887340 1.048200 -1.753600 9.103400 -90.248132 9.049859 32.309868 24.232833 -32.823714 -5.998098 0.408691 -0.077327 7.659989 -7.125000 0.000000 0.000000 92.575861 -14.804076 23.354626 -33.359815 40.772778 -10.071297 0.914363 -3.242146 17.312583 7.125000 0.000000 0.000000 
